<?xml version="1.0" encoding="iso-8859-1"?>
<!-- Generator: Adobe Illustrator 17.0.0, SVG Export Plug-In . SVG Version: 6.00 Build 0)  -->
<!DOCTYPE svg PUBLIC "-//W3C//DTD SVG 1.1//EN" "http://www.w3.org/Graphics/SVG/1.1/DTD/svg11.dtd">
<svg version="1.1" id="&#x56FE;&#x5C42;_1" xmlns="http://www.w3.org/2000/svg" xmlns:xlink="http://www.w3.org/1999/xlink" x="0px"
	 y="0px" width="800px" height="600px" viewBox="0 0 800 600" style="enable-background:new 0 0 800 600;" xml:space="preserve">
    <path style="fill:#FF988B;" d="M594.08,132H211.92C138.51,132,79,191.51,79,264.92v0.16C79,338.49,138.51,398,211.92,398h382.16
    	C667.49,398,727,338.49,727,265.08v-0.16C727,191.51,667.49,132,594.08,132z M687,265.08c0,51.32-41.6,92.92-92.92,92.92H211.92
    	C160.6,358,119,316.4,119,265.08v-0.16c0-51.32,41.6-92.92,92.92-92.92h382.16c51.32,0,92.92,41.6,92.92,92.92V265.08z"/>
    <path style="fill:#D7FFA2;" d="M687,264.92v0.16c0,51.32-41.6,92.92-92.92,92.92H211.92C160.6,358,119,316.4,119,265.08v-0.16
    	c0-51.32,41.6-92.92,92.92-92.92h382.16C645.4,172,687,213.6,687,264.92z"/>
    <path style="fill:none;stroke:#00FFFF;stroke-miterlimit:10;" d="M212.417,377.5C150.154,377.5,99.5,326.846,99.5,264.583v-0.167
    	c0-62.262,50.654-112.917,112.917-112.917h382.167c62.263,0,112.917,50.654,112.917,112.917v0.167
    	c0,62.262-50.654,112.917-112.917,112.917H212.417z"/>
    <text transform="matrix(1 0 0 1 581.3337 167.0005)" style="fill:#006837; font-family:'FZLTZHK--GBK1-0'; font-size:36;">&#x9F9F;</text>
    <text transform="matrix(1 0 0 1 193.1667 166.0003)" style="fill:#FFFFFF; font-family:'FZLTZHK--GBK1-0'; font-size:36;">&#x5154;</text>
</svg>
